<svg width="200" height="200" viewBox="0 0 200 200" fill="none" xmlns="http://www.w3.org/2000/svg">
<circle cx="100" cy="100" r="100" fill="#D9D9D9"/>
<path d="M153.761 32H46.3644C35.1358 32 26 41.134 26 52.3644V118.089C26 129.294 35.0958 138.413 46.2922 138.453V168.278L89.1538 138.453H153.761C164.989 138.453 174.125 129.317 174.125 118.089V52.3644C174.125 41.134 164.989 32 153.761 32ZM165.446 118.088C165.446 124.531 160.204 129.774 153.761 129.774H86.4308L54.9714 151.665V129.774H46.3644C39.921 129.774 34.6792 124.531 34.6792 118.089V52.3644C34.6792 45.9203 39.921 40.6792 46.3644 40.6792H153.761C160.204 40.6792 165.446 45.9203 165.446 52.3644V118.088Z" fill="black"/>
<path d="M65.6449 62.6674H134.48V71.3466H65.6449V62.6674ZM65.6449 81.183H134.48V89.8622H65.6449V81.183ZM65.6449 99.6987H134.48V108.378H65.6449V99.6987Z" fill="black"/>
</svg>
