<svg xmlns="http://www.w3.org/2000/svg" version="1.1" xmlns:xlink="http://www.w3.org/1999/xlink" xmlns:svgjs="http://svgjs.com/svgjs" width="512" height="512" x="0" y="0" viewBox="0 0 512 512" style="enable-background:new 0 0 512 512" xml:space="preserve" class=""><g><linearGradient id="a" x1=".004" x2="511.999" y1="256.002" y2="256.002" gradientUnits="userSpaceOnUse"><stop offset="0" stop-color="#00b8d1"></stop><stop offset="1" stop-color="#5b51a2"></stop></linearGradient><path fill="url(#a)" fill-rule="evenodd" d="M0 20.651v347.142L86.751 307a46.488 46.488 0 0 1 27.643-8.718h280.668a4.273 4.273 0 0 0 4.245-4.2V20.651a4.278 4.278 0 0 0-4.245-4.207H4.2A4.268 4.268 0 0 0 0 20.651zm507.848 123.565a4.257 4.257 0 0 1 4.152 4.208v347.137l-86.7-60.785a46.551 46.551 0 0 0-27.6-8.722H116.988a4.274 4.274 0 0 1-4.245-4.2v-97.029a22.184 22.184 0 0 1 1.651-.052h280.668a30.737 30.737 0 0 0 30.708-30.689V144.216z" data-original="url(#a)" class=""></path></g></svg>