<svg width="26" height="26" viewBox="0 0 26 26" fill="none" xmlns="http://www.w3.org/2000/svg">
<path d="M24.0281 16.2515C23.2874 18.586 21.6488 21.4739 18.4601 23.1837C16.5758 24.1941 14.5387 24.6285 12.5481 24.5486L12.6022 1.48854C13.1984 1.48879 13.9131 1.5186 14.6442 1.60167C14.9947 1.64149 15.338 1.69243 15.6664 1.75513C16.3908 1.92727 17.0981 2.16883 17.7774 2.47665C20.0085 3.48763 21.9361 5.21193 23.1835 7.5384C24.2129 9.45806 24.6441 11.5355 24.5435 13.5608C24.5011 14.2444 24.3458 15.1971 24.0281 16.2515ZM10.6016 1.75171L10.5487 24.2929C7.35578 23.5986 4.47862 21.5632 2.81481 18.4603C-0.201192 12.8356 1.91356 5.83098 7.53823 2.81498C8.1905 2.46522 9.27882 2.03243 10.6016 1.75171Z" stroke="url(#paint0_linear_4470_2)" stroke-width="2"/>
<defs>
<linearGradient id="paint0_linear_4470_2" x1="0.914146" y1="11.3382" x2="27.354" y2="12.9981" gradientUnits="userSpaceOnUse">
<stop offset="0.288448" stop-color="white"/>
<stop offset="0.780176" stop-color="white" stop-opacity="0"/>
</linearGradient>
</defs>
</svg>
