<svg xmlns="http://www.w3.org/2000/svg" version="1.1" xmlns:xlink="http://www.w3.org/1999/xlink" xmlns:svgjs="http://svgjs.com/svgjs" width="512" height="512" x="0" y="0" viewBox="0 0 511.998 511.998" style="enable-background:new 0 0 512 512" xml:space="preserve" class=""><g><g fill="#dbeaff"><path d="M143.412 58.896h-12.138a9.65 9.65 0 0 0-9.526 8.106l-19.469 132.073 6.068 1.09 42.875-58.375 1.841-7.142V68.547c-.001-5.33-4.322-9.651-9.651-9.651zM377.971 200.478l1.37-1.402-19.469-132.074a9.65 9.65 0 0 0-9.526-8.106h-12.138a9.65 9.65 0 0 0-9.65 9.65v66.102l2.956 8.1zM329.096 372.249l-.539 4.934v66.102c0 5.33 4.321 9.65 9.65 9.65h12.138a9.65 9.65 0 0 0 9.526-8.105l19.469-132.075-5.328 2.911z" fill="#dbeaff" data-original="#dbeaff"></path><path d="M349.891 68.547a9.65 9.65 0 0 1 5.042-8.481 9.615 9.615 0 0 0-4.588-1.169h-12.138a9.65 9.65 0 0 0-9.65 9.65v66.102l2.956 8.1 18.378 22.836zM349.891 443.285v-97.231l-20.794 26.195-.539 4.934v66.102c0 5.33 4.321 9.65 9.65 9.65h12.138a9.615 9.615 0 0 0 4.588-1.169 9.647 9.647 0 0 1-5.043-8.481zM106.346 312.756h-4.068l19.469 132.074a9.65 9.65 0 0 0 9.526 8.105h12.138a9.65 9.65 0 0 0 9.65-9.65v-66.102l-2.049-5.434zM144.081 67.002a9.636 9.636 0 0 1 4.426-6.64 9.589 9.589 0 0 0-5.096-1.466h-12.138a9.65 9.65 0 0 0-9.526 8.106l-19.469 132.073 6.068 1.09 20.149-27.433z" fill="#dbeaff" data-original="#dbeaff"></path><path d="m144.081 444.83-15.053-102.117-22.681-29.956h-4.068l19.469 132.074a9.65 9.65 0 0 0 9.526 8.105h12.138a9.591 9.591 0 0 0 5.096-1.466 9.638 9.638 0 0 1-4.427-6.64z" fill="#dbeaff" data-original="#dbeaff"></path></g><path fill="#fff0af" d="M412.762 240.915h-22.954l-1.962 1.5v27l1.962 1.5h22.954a8.128 8.128 0 0 0 8.128-8.127v-13.745a8.128 8.128 0 0 0-8.128-8.128z" data-original="#fff0af"></path><path fill="#ffe07d" d="M412.762 256.728h-22.954l-1.962-1.5v14.188l1.962 1.5h22.954a8.128 8.128 0 0 0 8.128-8.127v-13.745c0-.075-.009-.147-.011-.221-.118 4.384-3.702 7.905-8.117 7.905z" data-original="#ffe07d"></path><path fill="#edf4ff" d="M240.809 405.663c-82.571 0-149.747-67.177-149.747-149.748s67.176-149.748 149.747-149.748 149.748 67.177 149.748 149.748-67.176 149.748-149.748 149.748z" data-original="#edf4ff"></path><path fill="#dbeaff" d="M127.67 255.916c0-76.375 57.475-139.572 131.443-148.627a150.491 150.491 0 0 0-18.304-1.12c-82.571 0-149.747 67.176-149.747 149.748s67.176 149.748 149.747 149.748c6.196 0 12.303-.385 18.304-1.12-73.968-9.058-131.443-72.254-131.443-148.629z" data-original="#dbeaff"></path><ellipse cx="240.809" cy="255.916" fill="#fff0af" rx="119.747" ry="119.748" transform="rotate(-16.86 240.572 255.768)" data-original="#fff0af"></ellipse><path fill="#ffe07d" d="M157.67 255.916c0-59.807 44.072-109.513 101.443-118.35a120.232 120.232 0 0 0-18.304-1.397c-66.028 0-119.747 53.719-119.747 119.748s53.719 119.748 119.747 119.748c6.222 0 12.335-.478 18.304-1.397-57.371-8.84-101.443-58.546-101.443-118.352z" data-original="#ffe07d"></path><path fill="#ce775f" d="M318.471 7.417H163.148c-5.57 0-10.086 4.516-10.086 10.085v51.25c0 5.57 4.515 10.085 10.085 10.085h155.325c5.57 0 10.085-4.515 10.085-10.085v-51.25c0-5.569-4.515-10.085-10.086-10.085zM318.471 432.994H163.148c-5.57 0-10.086 4.516-10.086 10.086v51.25c0 5.57 4.515 10.085 10.085 10.085h155.325c5.57 0 10.085-4.515 10.085-10.085v-51.25c0-5.571-4.515-10.086-10.086-10.086z" data-original="#ce775f"></path><path fill="#c0694e" d="M203.846 68.752v-51.25c0-5.57 4.516-10.085 10.086-10.085h-50.784c-5.57 0-10.086 4.516-10.086 10.085v51.25c0 5.57 4.515 10.085 10.085 10.085h50.784c-5.57.001-10.085-4.514-10.085-10.085zM203.846 494.33v-51.25c0-5.57 4.516-10.086 10.086-10.086h-50.784c-5.57 0-10.086 4.516-10.086 10.086v51.25c0 5.57 4.515 10.085 10.085 10.085h50.784c-5.57-.001-10.085-4.516-10.085-10.085z" data-original="#c0694e"></path><circle cx="240.81" cy="255.916" r="19.914" fill="#edf4ff" transform="rotate(-16.86 240.572 255.768)" data-original="#edf4ff"></circle><path fill="#dbeaff" d="M240.81 255.916c0-7.352 4.015-13.77 9.957-17.22a19.764 19.764 0 0 0-9.957-2.694c-10.98 0-19.914 8.933-19.914 19.914s8.934 19.914 19.914 19.914c3.629 0 7.024-.992 9.957-2.694-5.942-3.451-9.957-9.869-9.957-17.22z" data-original="#dbeaff"></path><path d="m114.351 446.007.017.107a17.084 17.084 0 0 0 16.93 14.405h12.138c.73 0 1.444-.061 2.15-.15v34.044c0 9.696 7.889 17.585 17.585 17.585h60.163c4.143 0 7.5-3.358 7.5-7.5s-3.357-7.5-7.5-7.5H163.17a2.588 2.588 0 0 1-2.585-2.585v-51.25a2.589 2.589 0 0 1 2.586-2.586h155.323a2.589 2.589 0 0 1 2.586 2.586v51.25a2.588 2.588 0 0 1-2.585 2.585h-60.162c-4.143 0-7.5 3.358-7.5 7.5s3.357 7.5 7.5 7.5h60.162c9.696 0 17.585-7.889 17.585-17.585v-34.044c.706.089 1.421.15 2.15.15h12.138a17.084 17.084 0 0 0 16.93-14.405l.017-.107 19.337-131.176a155.967 155.967 0 0 0 9.812-36.332h16.322c8.617 0 15.628-7.011 15.628-15.628v-13.744c0-8.617-7.011-15.628-15.628-15.628h-16.322a155.856 155.856 0 0 0-9.812-36.332l-10.984-74.509a7.5 7.5 0 1 0-14.84 2.188l5.352 36.3c-8.477-11.18-18.656-21.433-30.1-30.18V68.63c0-1.186.965-2.15 2.15-2.15h12.138c1.049 0 1.934.744 2.117 1.773l3.184 21.593a7.5 7.5 0 1 0 14.84-2.188l-3.194-21.666-.017-.107a17.085 17.085 0 0 0-16.93-14.406H338.23c-.73 0-1.444.061-2.15.15V17.586C336.08 7.889 328.191 0 318.494 0H163.171c-9.697 0-17.586 7.889-17.586 17.586v34.043a17.147 17.147 0 0 0-2.15-.15h-12.138a17.085 17.085 0 0 0-16.93 14.406l-.017.107-19.335 131.172c-7.364 18.184-11.43 38.042-11.43 58.835s4.066 40.652 11.43 58.835zm283.55-197.508h14.884c.347 0 .628.282.628.628v13.744a.628.628 0 0 1-.628.628h-14.884c.257-5.379.216-10.485 0-15zM145.585 443.163v.205c0 1.186-.965 2.15-2.15 2.15h-12.138a2.141 2.141 0 0 1-2.117-1.772l-13.693-92.894c8.435 11.122 18.578 21.373 30.099 30.181v62.13zm175.495-17.374a17.632 17.632 0 0 0-2.586-.212H163.171c-.881 0-1.74.086-2.586.212v-34.612c23.507 14.008 50.952 22.07 80.247 22.07 29.296 0 56.74-8.062 80.248-22.07zm31.405 17.958a2.142 2.142 0 0 1-2.117 1.772H338.23a2.152 2.152 0 0 1-2.15-2.15v-62.336c10.992-8.362 21.453-18.774 30.1-30.18zM160.585 68.63V17.586A2.589 2.589 0 0 1 163.171 15h155.323a2.589 2.589 0 0 1 2.586 2.586v51.25a2.588 2.588 0 0 1-2.585 2.585H163.17a2.588 2.588 0 0 1-2.585-2.585zm0 17.579a17.63 17.63 0 0 0 2.585.212h155.325c.88 0 1.739-.086 2.585-.212v34.613c-23.508-14.008-50.952-22.07-80.248-22.07-29.295 0-56.74 8.062-80.247 22.07zM129.18 68.252a2.143 2.143 0 0 1 2.117-1.773h12.138c1.186 0 2.15.965 2.15 2.15v62.335a159.036 159.036 0 0 0-30.099 30.181zm111.652 45.499c77.986 0 142.248 63.368 142.248 142.248 0 78.414-63.831 142.248-142.248 142.248-31.085 0-59.867-10.03-83.297-27.013-.016-.011-.029-.025-.045-.037C121.4 345.009 98.585 302.826 98.585 256c0-78.378 63.79-142.249 142.247-142.249z" fill="#000000" data-original="#000000" class=""></path><path d="M240.832 383.247c70.165 0 127.248-57.083 127.248-127.248s-57.083-127.248-127.248-127.248c-70.164 0-127.247 57.083-127.247 127.248s57.083 127.248 127.247 127.248zm-85.37-77.959a7.5 7.5 0 0 0-10.245-2.745l-5.111 2.951a111.415 111.415 0 0 1-11.264-41.995h5.913c4.143 0 7.5-3.358 7.5-7.5s-3.357-7.5-7.5-7.5h-5.913a111.415 111.415 0 0 1 11.264-41.995l5.111 2.951a7.499 7.499 0 0 0 10.245-2.745 7.5 7.5 0 0 0-2.745-10.245l-5.094-2.941a113.165 113.165 0 0 1 30.735-30.735l2.941 5.094a7.498 7.498 0 0 0 10.245 2.745 7.5 7.5 0 0 0 2.745-10.245l-2.951-5.111a111.415 111.415 0 0 1 41.995-11.264v5.914c0 4.142 3.357 7.5 7.5 7.5s7.5-3.358 7.5-7.5v-5.913a111.415 111.415 0 0 1 41.994 11.264l-2.951 5.111a7.5 7.5 0 0 0 12.99 7.5l2.941-5.094a113.165 113.165 0 0 1 30.735 30.735l-5.094 2.941a7.5 7.5 0 0 0 7.5 12.99l5.111-2.951a111.396 111.396 0 0 1 11.264 41.995h-5.913c-4.143 0-7.5 3.358-7.5 7.5s3.357 7.5 7.5 7.5h5.913a111.415 111.415 0 0 1-11.264 41.995l-5.111-2.951a7.5 7.5 0 0 0-7.5 12.99l5.094 2.941a113.165 113.165 0 0 1-30.735 30.735l-2.941-5.094a7.5 7.5 0 1 0-12.99 7.5l2.951 5.111a111.415 111.415 0 0 1-41.994 11.264v-5.913c0-4.142-3.357-7.5-7.5-7.5s-7.5 3.358-7.5 7.5v5.914a111.415 111.415 0 0 1-41.995-11.264l2.951-5.111a7.5 7.5 0 0 0-12.99-7.5l-2.941 5.094a113.165 113.165 0 0 1-30.735-30.735l5.094-2.941a7.503 7.503 0 0 0 2.745-10.247z" fill="#000000" data-original="#000000" class=""></path><path d="M176.163 263.5h38.308c3.271 11.48 13.847 19.914 26.362 19.914 15.116 0 27.414-12.298 27.414-27.414 0-12.516-8.434-23.091-19.914-26.363v-52.382c0-4.142-3.357-7.5-7.5-7.5s-7.5 3.358-7.5 7.5v52.382c-9.095 2.592-16.271 9.768-18.863 18.863h-38.307a7.5 7.5 0 0 0 0 15zm64.67-19.915c6.845 0 12.414 5.569 12.414 12.414s-5.569 12.414-12.414 12.414-12.414-5.569-12.414-12.414 5.569-12.414 12.414-12.414z" fill="#000000" data-original="#000000" class=""></path></g></svg>