<svg width="26" height="26" fill="none" xmlns="http://www.w3.org/2000/svg"><path d="M24.028 16.252c-.74 2.334-2.38 5.222-5.568 6.932a11.497 11.497 0 0 1-5.912 1.365l.054-23.06c.596 0 1.311.03 2.042.113.35.04.694.09 1.022.153a11.63 11.63 0 0 1 2.111.722 11.5 11.5 0 0 1 5.406 5.061 11.497 11.497 0 0 1 1.36 6.023c-.042.683-.197 1.636-.515 2.69Zm-13.426-14.5-.053 22.54a11.529 11.529 0 0 1-7.734-5.832C-.201 12.836 1.914 5.831 7.538 2.815c.652-.35 1.74-.783 3.064-1.063Z" stroke="url(#a)" stroke-width="2"/><defs><linearGradient id="a" x1=".914" y1="11.338" x2="27.354" y2="12.998" gradientUnits="userSpaceOnUse"><stop offset=".288" stop-color="#fff"/><stop offset=".78" stop-color="#fff" stop-opacity="0"/></linearGradient></defs></svg>